<?xml version="1.0" encoding="UTF-8"?>
<svg version="1.1" xmlns="http://www.w3.org/2000/svg" width="318" height="184">
<path d="M0 0 C1.52502745 0.09215565 3.0462406 0.24999311 4.5625 0.4375 C10.82088374 1.12592221 16.82061051 1.54484737 23 0 C23.125 5.75 23.125 5.75 22 8 C21.01 8.33 20.02 8.66 19 9 C19 9.66 19 10.32 19 11 C17.68 11.33 16.36 11.66 15 12 C15 13.32 15 14.64 15 16 C13.68 16 12.36 16 11 16 C11 16.99 11 17.98 11 19 C10.01 19 9.02 19 8 19 C7.95875 20.093125 7.9175 21.18625 7.875 22.3125 C7.58625 23.529375 7.2975 24.74625 7 26 C4.25 27.625 4.25 27.625 1 29 C-3.03655641 32.73075668 -6.56106122 36.88936385 -10.125 41.0625 C-15.16081808 46.92153606 -20.29984063 52.6606519 -25.5625 58.31640625 C-28.95581012 62.05231018 -32.195231 65.7928465 -35 70 C-35.825 70.804375 -36.65 71.60875 -37.5 72.4375 C-40.46191298 75.34195616 -40.46191298 75.34195616 -42 79 C-40.93542614 81.37238864 -39.85507636 83.28586801 -38.4375 85.4375 C-38.03490967 86.0771167 -37.63231934 86.7167334 -37.2175293 87.37573242 C-36.3194888 88.80159668 -35.41487063 90.22333227 -34.50488281 91.64160156 C-32.30161127 95.0944898 -30.15636934 98.58254317 -28.00610352 102.06860352 C-25.86370739 105.53961261 -23.71592675 109.00684157 -21.53125 112.45141602 C-20 115 -20 115 -18.609375 117.82788086 C-16.2239747 122.85347622 -16.2239747 122.85347622 -11.81274414 125.83081055 C-9.27810104 126.10275476 -6.91894441 126.08817978 -4.375 125.9375 C4.44170389 125.7022983 4.44170389 125.7022983 7.5859375 127.37890625 C9 129 9 129 9 131 C9.56203125 131.25523437 10.1240625 131.51046875 10.703125 131.7734375 C13.29386482 133.15692781 15.45107845 134.79938583 17.75 136.625 C18.54921875 137.25664062 19.3484375 137.88828125 20.171875 138.5390625 C20.77515625 139.02117187 21.3784375 139.50328125 22 140 C21.67 140.66 21.34 141.32 21 142 C19.16927749 142.01271607 17.33854608 142.02414788 15.5078125 142.03515625 C14.33621582 142.04224609 13.16461914 142.04933594 11.95751953 142.05664062 C8.09575618 142.06254471 4.23646736 142.01742689 0.375 141.97265625 C-3.94592494 141.93800525 -8.09273601 142.05329356 -12.375 142.62109375 C-16.95439523 143.10146336 -20.93327984 143.44803826 -25 141 C-30.50378161 134.92204308 -33.93061306 127.33626652 -37.48632812 120.02246094 C-39.48889086 116.02379534 -41.80730182 112.30247484 -44.25 108.5625 C-47.54873014 103.37412855 -50.71872344 98.12546985 -53.8125 92.8125 C-58.19626803 85.2861988 -62.76045996 77.88053502 -67.36962891 70.49047852 C-70.95822231 64.72497707 -74.42135034 58.9156556 -77.73046875 52.984375 C-78.84966967 50.8616559 -78.84966967 50.8616559 -81 50 C-81.73229439 48.33569458 -82.45904991 46.66850176 -83.14453125 44.984375 C-85.53765789 39.07837691 -85.53765789 39.07837691 -90 35 C-90.27328125 35.71414062 -90.5465625 36.42828125 -90.828125 37.1640625 C-95.24367938 47.8497041 -101.77321568 57.65020776 -107.80029297 67.47363281 C-111.07356451 72.81400373 -114.30193135 78.16685136 -117.375 83.625 C-121.08024096 90.19194833 -125.01461087 96.60016153 -129 103 C-133.50438873 110.24546388 -137.95993502 117.48314833 -142 125 C-136.99044469 125.83162578 -131.90802849 126.61168698 -127 125 C-123.39415851 121.46991148 -121.26488984 117.67164141 -119.06787109 113.17138672 C-114.17234246 103.21692133 -108.31914525 93.78808763 -102.56640625 84.31640625 C-98.52845188 77.63602775 -94.67313397 70.88798121 -91 64 C-89.68 64 -88.36 64 -87 64 C-85.41943359 65.94921875 -85.41943359 65.94921875 -83.8984375 68.6875 C-83.33141113 69.6875708 -82.76438477 70.6876416 -82.18017578 71.71801758 C-81.58446777 72.80107178 -80.98875977 73.88412598 -80.375 75 C-79.11131011 77.23416856 -77.84568311 79.46724255 -76.578125 81.69921875 C-75.96259766 82.79024902 -75.34707031 83.8812793 -74.71289062 85.00537109 C-72.61444627 88.67405959 -70.40320192 92.25369847 -68.125 95.8125 C-62.75510111 104.25762594 -57.6970342 112.8883056 -52.61962891 121.51098633 C-51.96526855 122.62111084 -51.3109082 123.73123535 -50.63671875 124.875 C-50.01458496 125.93203125 -49.39245117 126.9890625 -48.75146484 128.078125 C-47.22212512 130.62944056 -45.63852793 133.13020864 -44.01953125 135.625 C-42 139 -42 139 -42 142 C-45.04907118 142.07547206 -48.07643785 142.08708518 -51.125 142.0625 C-51.9809375 142.09021484 -52.836875 142.11792969 -53.71875 142.14648438 C-57.49321909 142.07389843 -60.01455588 141.97811033 -62.77148438 139.24169922 C-64.35734135 136.89505951 -65.69218557 134.51146021 -67 132 C-67.87543852 130.51800535 -68.75555722 129.03876412 -69.640625 127.5625 C-70.51310485 126.04320724 -71.38282834 124.52232877 -72.25 123 C-73.2014791 121.34615632 -74.1533103 119.69251516 -75.10546875 118.0390625 C-76.07034894 116.35939593 -77.03519267 114.67970842 -78 113 C-79.84625166 109.78701013 -81.70079454 106.57905693 -83.5625 103.375 C-83.97983398 102.64667969 -84.39716797 101.91835937 -84.82714844 101.16796875 C-86.7884427 97.47393254 -86.7884427 97.47393254 -90 95 C-90.23074219 95.639375 -90.46148437 96.27875 -90.69921875 96.9375 C-92.47200336 101.11126316 -94.62943782 105.02851815 -96.8125 109 C-97.21919922 109.75539063 -97.62589844 110.51078125 -98.04492188 111.2890625 C-99.00510091 113.03989547 -100.00794469 114.76761966 -101.03881836 116.4777832 C-102.71709719 119.33178878 -103.9894159 122.28256878 -105.29125977 125.32495117 C-111.88160016 139.46290109 -111.88160016 139.46290109 -118.93722534 142.09625244 C-127.37049032 143.628485 -135.81587262 142.91480216 -144.3125 142.3125 C-146.90261548 142.20702898 -149.49314412 142.11123418 -152.08398438 142.02539062 C-158.39841386 141.79520996 -164.69727295 141.44520548 -171 141 C-169.29929399 136.58137415 -167.11654725 132.61505043 -164.6875 128.5625 C-164.03696655 127.46627319 -164.03696655 127.46627319 -163.37329102 126.34790039 C-161.91849863 123.896822 -160.45917916 121.448469 -159 119 C-156.80928674 115.31439979 -154.62226744 111.62662767 -152.4375 107.9375 C-151.59723267 106.51957153 -151.59723267 106.51957153 -150.73999023 105.07299805 C-147.67044462 99.87820936 -144.66690378 94.65669203 -141.75 89.375 C-137.20108287 81.15284049 -132.2677199 73.16309822 -127.36764526 65.1477356 C-122.68627436 57.48716024 -118.0990972 49.79460207 -113.77539062 41.92480469 C-111.44507784 37.70549086 -108.90956966 33.70773563 -106.09375 29.796875 C-104.89629375 28.04279977 -104.89629375 28.04279977 -104.53125 25.953125 C-103.86667723 23.50984276 -102.79226119 22.78400192 -101 21 C-99.56896816 18.68362161 -98.20275305 16.37341938 -96.875 14 C-96.51535156 13.3709375 -96.15570313 12.741875 -95.78515625 12.09375 C-94.27320143 9.42093099 -92.97352789 6.92058366 -92 4 C-91.34 4 -90.68 4 -90 4 C-90 3.34 -90 2.68 -90 2 C-89.34 2 -88.68 2 -88 2 C-86.64306641 3.92431641 -86.64306641 3.92431641 -85.1015625 6.6015625 C-84.53953125 7.56707031 -83.9775 8.53257813 -83.3984375 9.52734375 C-82.52058594 11.06068359 -82.52058594 11.06068359 -81.625 12.625 C-80.47287758 14.61806891 -79.31927 16.61028016 -78.1640625 18.6015625 C-77.62040039 19.5390332 -77.07673828 20.47650391 -76.51660156 21.44238281 C-74.77777534 24.37476265 -72.94099367 27.19846727 -71 30 C-69.3490067 27.39907118 -67.70511682 24.7937256 -66.0625 22.1875 C-65.59392578 21.44951172 -65.12535156 20.71152344 -64.64257812 19.95117188 C-64.19462891 19.23896484 -63.74667969 18.52675781 -63.28515625 17.79296875 C-62.87144775 17.1383667 -62.45773926 16.48376465 -62.03149414 15.80932617 C-60.84873899 13.87143744 -60.84873899 13.87143744 -60 11 C-59.34 11 -58.68 11 -58 11 C-57.81824219 10.36191406 -57.63648438 9.72382813 -57.44921875 9.06640625 C-57.19785156 8.24011719 -56.94648438 7.41382813 -56.6875 6.5625 C-56.44386719 5.73878906 -56.20023437 4.91507813 -55.94921875 4.06640625 C-55.63597656 3.38449219 -55.32273437 2.70257812 -55 2 C-51.30459598 0.76819866 -47.89696622 0.87587888 -44.05078125 0.90234375 C-43.27816452 0.9037587 -42.50554779 0.90517365 -41.70951843 0.90663147 C-39.24380611 0.91222534 -36.77818485 0.92477667 -34.3125 0.9375 C-32.63997527 0.94251579 -30.96744912 0.94707856 -29.29492188 0.95117188 C-25.19657954 0.96219276 -21.09830521 0.97945316 -17 1 C-16.67 1.99 -16.34 2.98 -16 4 C-17.36328125 5.9375 -17.36328125 5.9375 -19.3125 8 C-21.45825516 10.29809072 -23.24671907 12.3700786 -25 15 C-25.66 15 -26.32 15 -27 15 C-27.33 16.32 -27.66 17.64 -28 19 C-32.95 19 -37.9 19 -43 19 C-43.495 20.485 -43.495 20.485 -44 22 C-44.98314961 23.01657112 -45.98543924 24.01477593 -47 25 C-50.96515863 30.36089447 -54.15124169 35.98853858 -57 42 C-57.61101562 42.92683594 -58.22203125 43.85367188 -58.8515625 44.80859375 C-60.43132205 48.06408585 -60.43132205 48.06408585 -58.54296875 51.4296875 C-57.78200353 52.59429514 -56.99574283 53.7426915 -56.1875 54.875 C-55.79240234 55.46796875 -55.39730469 56.0609375 -54.99023438 56.671875 C-54.01483433 58.12909916 -53.01015216 59.56664725 -52 61 C-46.66933954 55.85896778 -41.60632992 50.8037986 -37.31640625 44.75390625 C-36.0305306 43.04067727 -34.67166571 41.60273353 -33.125 40.125 C-32.42375 39.42375 -31.7225 38.7225 -31 38 C-31 37.34 -31 36.68 -31 36 C-30.0925 35.401875 -29.185 34.80375 -28.25 34.1875 C-23.83363036 31.21494351 -21.15413851 27.84681164 -19 23 C-18.01 23 -17.02 23 -16 23 C-15.7525 22.46375 -15.505 21.9275 -15.25 21.375 C-11.0212766 13.34042553 -11.0212766 13.34042553 -7 12 C-7 10.68 -7 9.36 -7 8 C-5.68 8 -4.36 8 -3 8 C-2.690625 6.865625 -2.38125 5.73125 -2.0625 4.5625 C-1 1 -1 1 0 0 Z M5 24 C4.67 24.66 4.34 25.32 4 26 C4.66 26 5.32 26 6 26 C5.67 25.34 5.34 24.68 5 24 Z " fill="#131313" transform="translate(235,16)"/>
<path d="M0 0 C1.52502745 0.09215565 3.0462406 0.24999311 4.5625 0.4375 C10.82088374 1.12592221 16.82061051 1.54484737 23 0 C23.125 5.75 23.125 5.75 22 8 C20.68 7.67 19.36 7.34 18 7 C18.99 5.68 19.98 4.36 21 3 C17.74870364 3.05194909 14.50004935 3.147037 11.25 3.25 C9.86941406 3.27126953 9.86941406 3.27126953 8.4609375 3.29296875 C3.00181875 3.41704868 3.00181875 3.41704868 -1.640625 6.046875 C-2.08921875 6.69140625 -2.5378125 7.3359375 -3 8 C-1.125 1.125 -1.125 1.125 0 0 Z " fill="#474747" transform="translate(235,16)"/>
<path d="M0 0 C12.21 0 24.42 0 37 0 C37.495 1.485 37.495 1.485 38 3 C37.01 3.99 36.02 4.98 35 6 C34.505 5.01 34.505 5.01 34 4 C34.33 3.34 34.66 2.68 35 2 C30.19432577 2.11811006 25.38886432 2.24234823 20.58349609 2.37231445 C18.94812347 2.41567538 17.31270523 2.45734961 15.67724609 2.49731445 C13.32896159 2.55498912 10.98090696 2.61869129 8.6328125 2.68359375 C7.89942657 2.70030624 7.16604065 2.71701874 6.41043091 2.73423767 C2.57797692 2.78637962 2.57797692 2.78637962 -1 4 C-0.67 2.68 -0.34 1.36 0 0 Z " fill="#C0C0C0" transform="translate(181,17)"/>
<path d="M0 0 C0.125 5.75 0.125 5.75 -1 8 C-2.32 7.67 -3.64 7.34 -5 7 C-3.68 5.35 -2.36 3.7 -1 2 C-2.32 1.67 -3.64 1.34 -5 1 C-3 0 -3 0 0 0 Z " fill="#D0D0D0" transform="translate(258,16)"/>
<path d="M0 0 C0.33 0.99 0.66 1.98 1 3 C-1.64 4.98 -4.28 6.96 -7 9 C-6.67 7.68 -6.34 6.36 -6 5 C-5.01 5 -4.02 5 -3 5 C-2.690625 4.360625 -2.38125 3.72125 -2.0625 3.0625 C-1 1 -1 1 0 0 Z " fill="#868686" transform="translate(222,34)"/>
<path d="M0 0 C1.32 0.33 2.64 0.66 4 1 C2.02 3.31 0.04 5.62 -2 8 C-2.33 7.34 -2.66 6.68 -3 6 C-2.06553465 3.96855359 -1.06775224 1.96466413 0 0 Z " fill="#BABABA" transform="translate(235,16)"/>
<path d="M0 0 C0.99 0.495 0.99 0.495 2 1 C1.67 1.66 1.34 2.32 1 3 C0.67 2.01 0.34 1.02 0 0 Z " fill="#E0E0E0" transform="translate(230,19)"/>
<path d="" fill="#AAAAAA" transform="translate(0,0)"/>
<path d="" fill="#C6C6C6" transform="translate(0,0)"/>
</svg>
